<svg width="60" height="50" viewBox="0 0 60 50" fill="none" xmlns="http://www.w3.org/2000/svg">
<path d="M54.5002 15.528H48.5101C49.3252 16.5749 49.8155 17.8869 49.8155 19.3115V32.1663C49.8155 35.5655 47.0325 38.3419 43.6399 38.3419H28.5455C29.3472 40.396 31.3417 41.8604 33.6741 41.8604H54.5002C57.5217 41.8604 59.9999 39.3888 59.9999 36.3607V21.0277C59.9933 17.9995 57.5217 15.528 54.5002 15.528Z" fill="#EF933D"/>
<path d="M47.5362 28.6875V9.06738C47.5362 4.15075 43.5141 0.128662 38.5975 0.128662H8.93871C4.02209 0.128662 0 4.15075 0 9.06738V28.6875C0 33.359 3.63114 37.2154 8.2032 37.5931C8.2032 37.5931 6.87797 47.8902 8.52789 47.8902C10.1778 47.8902 21.0116 37.6262 21.0116 37.6262H38.5908C43.5141 37.6262 47.5362 33.6041 47.5362 28.6875ZM19.4346 33.6505L18.2816 34.7372C18.2617 34.7571 15.9956 36.904 13.4313 39.1834C12.868 39.6803 12.3578 40.1309 11.8874 40.5417C12.0133 39.1569 12.1458 38.1165 12.1458 38.1033L12.6759 33.9752L8.52789 33.6306C5.97681 33.4186 3.9757 31.2452 3.9757 28.6875V9.06738C3.9757 7.74877 4.49255 6.50967 5.44009 5.56876C6.381 4.62784 7.62673 4.10437 8.93871 4.10437H38.5975C39.9161 4.10437 41.1552 4.62121 42.0961 5.56876C43.037 6.50967 43.5605 7.75539 43.5605 9.06738V28.6875C43.5605 30.0061 43.0436 31.2452 42.0961 32.1861C41.1552 33.127 39.9094 33.6505 38.5975 33.6505H19.4346Z" fill="#003796"/>
<path d="M50.8227 12.4865C49.7492 12.2678 48.6957 12.957 48.477 14.0304C48.2583 15.1039 48.9475 16.1574 50.0209 16.3761C52.6051 16.9062 54.4803 19.2055 54.4803 21.8427V33.571C54.4803 36.3275 52.4196 38.7063 49.6896 39.0972L47.5228 39.4087L48.0397 41.5357C48.1722 42.0724 48.2981 42.6489 48.424 43.2121C47.2578 42.1254 45.9524 40.8797 44.7663 39.7201L44.1899 39.1502H33.0778C31.6266 39.1502 30.6526 39.0575 29.9502 38.5804C29.0424 37.9642 27.8033 38.1961 27.1871 39.1039C26.5708 40.0117 26.8028 41.2507 27.7106 41.867C29.4135 43.0266 31.3748 43.126 33.0778 43.126H42.5664C43.2291 43.7687 44.3754 44.8686 45.5482 45.962C46.6217 46.9625 47.5096 47.7577 48.1854 48.3408C49.5107 49.4672 50.1269 49.8714 50.9419 49.8714C51.5847 49.8714 52.181 49.5799 52.5852 49.0696C53.2545 48.2149 53.2611 47.1414 52.6184 43.8548C52.5256 43.3778 52.4262 42.9139 52.3334 42.4898C55.9381 41.0917 58.456 37.5666 58.456 33.571V21.8427C58.4626 17.3369 55.2489 13.4009 50.8227 12.4865Z" fill="#003796"/>
<path d="M24.603 30.0393C22.2242 30.0393 19.8984 28.9062 18.0564 26.8521C16.4263 25.0299 15.4523 22.7703 15.4523 20.7957V18.8278L17.4202 18.8079C17.4468 18.8079 19.8189 18.7814 23.7416 18.7814C24.8416 18.7814 25.7295 19.6693 25.7295 20.7692C25.7295 21.8692 24.8416 22.7571 23.7416 22.7571C22.264 22.7571 21.0116 22.7637 20.0177 22.7637C20.2695 23.2342 20.6008 23.7245 21.0183 24.195C22.0784 25.381 23.3838 26.0569 24.603 26.0569C25.8222 26.0569 27.1276 25.3744 28.1878 24.195C28.6185 23.7113 28.9564 23.2077 29.2082 22.724C28.3004 22.5384 27.6113 21.73 27.6179 20.7692C27.6246 19.6759 28.5125 18.788 29.6058 18.788H29.6124C31.4081 18.7946 31.7659 18.8013 31.8388 18.8079L33.7538 18.8808V20.7957C33.7538 22.7703 32.7797 25.0299 31.1497 26.8521C29.301 28.9062 26.9818 30.0393 24.603 30.0393Z" fill="#EF933D"/>
</svg>
