<svg width="150" height="51" viewBox="0 0 150 51" fill="none" xmlns="http://www.w3.org/2000/svg">
<path opacity="0.994" fill-rule="evenodd" clip-rule="evenodd" d="M48.1038 23.1029C46.4425 22.2801 44.712 22.1139 42.9123 22.6042C42.3712 22.9034 41.8373 23.2174 41.3107 23.5461C40.9046 23.3959 40.7204 23.1004 40.7584 22.6596C40.6756 22.5903 40.5835 22.5349 40.4823 22.4934C38.9727 22.4195 37.4632 22.4195 35.9536 22.4934C35.8983 22.5488 35.8431 22.6042 35.7879 22.6596C35.7142 27.3503 35.7142 32.0411 35.7879 36.7317C35.8431 36.7871 35.8983 36.8425 35.9536 36.8979C37.4632 36.9718 38.9727 36.9718 40.4823 36.8979C40.5715 36.8638 40.6452 36.8084 40.7032 36.7317C40.7942 33.9294 40.8494 31.1224 40.8689 28.3106C41.5756 26.7708 42.7354 26.3092 44.3483 26.9256C44.8085 27.1657 45.1582 27.5165 45.3976 27.9782C45.5595 30.3347 45.6148 32.6985 45.5633 35.0696C40.0041 44.2836 31.8671 48.1433 21.1524 46.6486C14.375 45.1997 9.23873 41.4877 5.74369 35.5129C1.77354 27.8059 1.884 20.1605 6.07506 12.5765C9.95148 6.44125 15.4927 2.84013 22.6988 1.77314C32.5625 0.971039 40.092 4.75683 45.2871 13.1305C47.017 16.2307 47.9559 19.5548 48.1038 23.1029Z" fill="#F3CA13"/>
<path fill-rule="evenodd" clip-rule="evenodd" d="M20.6001 15.5675C22.4046 15.549 24.2087 15.5675 26.0125 15.6229C26.4256 15.7658 26.7754 16.0059 27.0618 16.3431C29.406 22.6972 31.7256 29.0499 34.0206 35.4013C34.1523 36.2264 33.8761 36.8727 33.1922 37.3404C31.8009 37.5185 30.4017 37.5555 28.9948 37.4512C28.6566 37.3337 28.3805 37.1305 28.1664 36.8418C27.9237 36.2223 27.7028 35.5944 27.5036 34.9581C27.2582 34.5273 26.9085 34.2134 26.4543 34.0163C24.3556 33.9424 22.257 33.9424 20.1583 34.0163C19.7825 34.1714 19.4695 34.4115 19.2194 34.7365C18.9248 35.4753 18.6303 36.2139 18.3358 36.9526C18.0863 37.1664 17.8102 37.3327 17.5073 37.4512C16.2555 37.5251 15.0036 37.5251 13.7518 37.4512C12.8382 37.0781 12.4516 36.3948 12.592 35.4013C14.8761 29.1203 17.159 22.8414 19.4403 16.5647C19.717 16.087 20.1036 15.7546 20.6001 15.5675Z" fill="#010100"/>
<path opacity="0.964" fill-rule="evenodd" clip-rule="evenodd" d="M143.207 15.789C144.724 15.5074 145.921 15.9877 146.797 17.2294C147.428 19.6253 146.508 20.9181 144.035 21.1076C142.244 21.1009 141.231 20.2145 140.998 18.4483C141.135 17.0558 141.87 16.1694 143.207 15.789Z" fill="#F3CB13"/>
<path opacity="0.976" fill-rule="evenodd" clip-rule="evenodd" d="M87.5368 18.4495C90.1402 18.1847 92.5334 18.7572 94.7164 20.167C95.2908 20.7061 95.8246 21.2786 96.318 21.8844C96.7227 22.5853 97.0356 23.3239 97.2569 24.1005C97.2185 24.344 97.108 24.5471 96.9256 24.7099C95.2319 24.7838 93.5382 24.7838 91.8446 24.7099C90.3473 23.1115 88.6169 22.816 86.6531 23.8235C85.3729 24.8273 84.747 26.1569 84.7753 27.8124C84.9183 31.3013 86.7224 32.8526 90.1877 32.4662C91.3117 32.2601 92.1586 31.6692 92.7282 30.6933C92.6427 30.423 92.4587 30.2753 92.1759 30.2501C90.8504 30.2132 89.525 30.1762 88.1995 30.1393C88.1303 30.0562 88.0751 29.9638 88.0338 29.8623C87.9601 28.8651 87.9601 27.8678 88.0338 26.8706C88.0751 26.7691 88.1303 26.6767 88.1995 26.5936C91.175 26.4119 94.1573 26.3749 97.1465 26.4828C97.3045 26.5343 97.4333 26.6267 97.5331 26.7598C98.4144 30.1322 97.5492 32.9207 94.9373 35.1255C91.8632 37.2659 88.5495 37.7091 84.9963 36.4551C81.3573 34.7565 79.5532 31.8756 79.5839 27.8124C79.5745 23.3564 81.6363 20.3647 85.7694 18.8373C86.3719 18.6983 86.9609 18.569 87.5368 18.4495Z" fill="black"/>
<path opacity="0.98" fill-rule="evenodd" clip-rule="evenodd" d="M99.908 18.671C103.295 18.6525 106.683 18.671 110.07 18.7264C113.479 19.264 114.933 21.24 114.433 24.6544C114.103 25.7975 113.44 26.6839 112.445 27.3137C112.354 27.5576 112.409 27.7607 112.611 27.9231C114.182 28.8214 114.955 30.1879 114.93 32.0228C114.936 34.4188 113.795 35.97 111.506 36.6766C110.746 36.8786 109.973 36.9894 109.186 37.009C106.204 37.0829 103.222 37.0829 100.239 37.009C100.1 36.9748 99.9706 36.9194 99.8528 36.8428C99.7253 33.8393 99.6701 30.8292 99.6871 27.8123C99.7055 24.9129 99.7239 22.0136 99.7423 19.1142C99.7876 18.959 99.8428 18.8113 99.908 18.671ZM105.21 22.7707C106.131 22.7523 107.052 22.7707 107.971 22.8261C109.129 23.1727 109.516 23.9299 109.131 25.0976C108.892 25.4865 108.542 25.7266 108.082 25.8178C107.124 25.8917 106.167 25.8917 105.21 25.8178C105.077 25.7178 104.985 25.5886 104.934 25.43C104.86 24.6913 104.86 23.9527 104.934 23.214C105.007 23.0495 105.099 22.9018 105.21 22.7707ZM105.099 29.6406C106.36 29.5926 107.612 29.648 108.855 29.8068C109.212 29.98 109.451 30.257 109.573 30.6378C109.839 31.9584 109.306 32.6786 107.971 32.7985C107.003 32.9026 106.045 32.8657 105.099 32.6877C105.03 32.6046 104.975 32.5122 104.934 32.4107C104.86 31.5981 104.86 30.7855 104.934 29.973C104.99 29.8592 105.046 29.7484 105.099 29.6406Z" fill="black"/>
<path opacity="0.985" fill-rule="evenodd" clip-rule="evenodd" d="M45.5636 35.0686C45.615 32.6974 45.5598 30.3336 45.3979 27.9771C45.1585 27.5154 44.8088 27.1646 44.3485 26.9245C42.7357 26.3081 41.5759 26.7697 40.8692 28.3096C40.8497 31.1213 40.7945 33.9283 40.7035 36.7306C40.6455 36.8073 40.5718 36.8627 40.4826 36.8968C38.973 36.9708 37.4635 36.9708 35.9539 36.8968C35.8986 36.8414 35.8434 36.786 35.7882 36.7306C35.7145 32.04 35.7145 27.3492 35.7882 22.6586C35.8434 22.6032 35.8986 22.5478 35.9539 22.4924C37.4635 22.4185 38.973 22.4185 40.4826 22.4924C40.5837 22.5338 40.6759 22.5892 40.7587 22.6586C40.7207 23.0993 40.9048 23.3949 41.311 23.545C41.8375 23.2164 42.3715 22.9023 42.9126 22.6032C44.7123 22.1129 46.4428 22.2791 48.1041 23.1018C48.7568 23.4792 49.3275 23.9593 49.8161 24.5422C52.105 22.1329 54.7744 21.5973 57.8242 22.9356C59.4717 23.9677 60.3737 25.4636 60.5304 27.4231C60.6041 30.5256 60.6041 33.6281 60.5304 36.7306C60.4307 36.8637 60.3019 36.9561 60.1438 37.0076C58.7079 37.0816 57.272 37.0816 55.836 37.0076C55.678 36.9561 55.5492 36.8637 55.4494 36.7306C55.4126 33.9974 55.3758 31.2644 55.339 28.5312C54.8896 27.0952 53.914 26.5226 52.4119 26.8137C51.5835 27.0538 51.0496 27.5893 50.8103 28.4204C50.8083 31.2371 50.7346 34.0441 50.5893 36.8414C50.4715 36.918 50.3426 36.9734 50.2027 37.0076C48.8036 37.0816 47.4046 37.0816 46.0054 37.0076C45.8473 36.9561 45.7185 36.8637 45.6188 36.7306C45.5637 36.1778 45.5452 35.6238 45.5636 35.0686Z" fill="black"/>
<path opacity="0.978" fill-rule="evenodd" clip-rule="evenodd" d="M129.069 22.2154C130.888 21.9377 132.527 22.3439 133.984 23.4343C134.355 23.3185 134.54 23.06 134.536 22.6586C134.628 22.5663 134.721 22.4739 134.812 22.3816C136.285 22.3077 137.758 22.3077 139.231 22.3816C139.389 22.4331 139.518 22.5256 139.617 22.6586C139.691 27.3124 139.691 31.9661 139.617 36.6199C139.576 36.7214 139.521 36.8138 139.452 36.8969C137.953 37.0775 136.443 37.1144 134.923 37.0077C134.559 36.8572 134.394 36.5802 134.426 36.1767C134.32 36.0222 134.173 35.9483 133.984 35.9551C133.323 36.406 132.606 36.757 131.83 37.0077C127.532 37.5736 124.973 35.7083 124.153 31.4121C123.728 28.8891 124.208 26.5622 125.589 24.4315C126.502 23.2826 127.661 22.5438 129.069 22.2154ZM131.167 26.7584C133.583 26.6862 134.67 27.8682 134.426 30.3041C133.839 32.4172 132.533 33.0635 130.505 32.2431C129.349 31.145 129.036 29.8338 129.566 28.3096C129.883 27.5534 130.416 27.0363 131.167 26.7584Z" fill="black"/>
<path opacity="0.976" fill-rule="evenodd" clip-rule="evenodd" d="M62.3528 22.3273C64.0149 22.2922 65.6718 22.3291 67.3233 22.4381C68.2634 24.6569 69.1286 26.91 69.919 29.1971C70.1805 29.5774 70.4751 29.6143 70.8027 29.3079C71.6317 27.0346 72.4601 24.7631 73.288 22.4935C74.9345 22.3126 76.5914 22.2756 78.2585 22.3827C78.4166 22.4342 78.5454 22.5266 78.6451 22.6597C78.7082 23.0525 78.6345 23.4218 78.4242 23.7677C75.5587 30.3661 72.7236 36.9774 69.919 43.6016C69.827 43.6939 69.7349 43.7863 69.6429 43.8786C68.0228 43.9525 66.4029 43.9525 64.7828 43.8786C64.4842 43.677 64.3922 43.3999 64.5067 43.0476C65.5729 40.8172 66.5854 38.5641 67.5442 36.2886C65.7156 31.918 63.8563 27.5597 61.9662 23.2137C61.8865 22.8199 62.0154 22.5245 62.3528 22.3273Z" fill="black"/>
<path opacity="0.969" fill-rule="evenodd" clip-rule="evenodd" d="M141.771 22.3273C143.245 22.3087 144.717 22.3273 146.189 22.3827C146.391 22.4381 146.521 22.5674 146.576 22.7705C146.65 27.3873 146.65 32.0041 146.576 36.6209C146.521 36.824 146.391 36.9533 146.189 37.0087C144.753 37.0826 143.317 37.0826 141.882 37.0087C141.724 36.9572 141.594 36.8648 141.495 36.7317C141.421 32.0411 141.421 27.3503 141.495 22.6597C141.61 22.5629 141.703 22.4521 141.771 22.3273Z" fill="black"/>
<path fill-rule="evenodd" clip-rule="evenodd" d="M22.9195 25.873C24.3381 25.8739 25.0192 26.5757 24.9629 27.9783C24.4333 29.1769 23.568 29.5278 22.3672 29.031C21.2129 27.7355 21.3971 26.6829 22.9195 25.873Z" fill="#ECC413"/>
<path opacity="0.967" fill-rule="evenodd" clip-rule="evenodd" d="M117.802 31.8561C118.996 31.6797 120.045 31.9751 120.95 32.7425C121.867 34.1663 121.738 35.4774 120.563 36.6761C119.238 37.3409 117.913 37.3409 116.587 36.6761C115.552 35.6881 115.312 34.5247 115.869 33.1857C116.354 32.4941 116.998 32.0509 117.802 31.8561Z" fill="black"/>
</svg>
