<svg width="599" height="576" viewBox="0 0 599 576" fill="none" xmlns="http://www.w3.org/2000/svg">
<path d="M304 160H112C103.168 160 96 167.168 96 176C96 184.832 103.168 192 112 192H304C312.832 192 320 184.832 320 176C320 167.168 312.832 160 304 160ZM240 224H112C103.168 224 96 231.168 96 240C96 248.832 103.168 256 112 256H240C248.832 256 256 248.832 256 240C256 231.168 248.832 224 240 224Z" fill="#560BAD"/>
<path d="M352 64H64C28.704 64 0 92.704 0 128V448C0 454.208 3.584 459.872 9.216 462.496C11.3423 463.481 13.6566 463.994 16 464C19.68 464 23.328 462.72 26.24 460.288L117.792 384H352C387.296 384 416 355.296 416 320V128C416 92.704 387.296 64 352 64ZM384 320C384 337.632 369.664 352 352 352H112C108.256 352 104.64 353.312 101.76 355.712L32 413.856V128C32 110.368 46.336 96 64 96H352C369.664 96 384 110.368 384 128V320Z" fill="#560BAD"/>
<path d="M448 192C439.168 192 432 199.168 432 208C432 216.832 439.168 224 448 224C465.664 224 480 238.368 480 256V526.688L425.984 483.488C423.143 481.236 419.626 480.007 416 480H192C174.336 480 160 465.632 160 448V432C160 423.168 152.832 416 144 416C135.168 416 128 423.168 128 432V448C128 483.296 156.704 512 192 512H410.368L485.984 572.512C488.835 574.768 492.364 575.997 496 576C498.336 576 500.704 575.488 502.944 574.432C505.656 573.119 507.944 571.069 509.545 568.517C511.147 565.965 511.997 563.013 512 560V256C512 220.704 483.296 192 448 192Z" fill="#560BAD"/>
<g clip-path="url(#clip0_70_24)">
<rect x="343" width="256" height="256" rx="100" fill="white"/>
<path d="M471 0C400.312 0 343 57.312 343 128C343 198.688 400.312 256 471 256C541.688 256 599 198.688 599 128C599 57.312 541.688 0 471 0ZM471 209.707C460.995 209.707 454.147 201.995 454.147 192C454.147 181.717 461.283 174.293 471 174.293C481.272 174.293 487.853 181.717 487.853 192C487.853 202.005 481.272 209.707 471 209.707ZM477.635 142.091C475.085 150.784 467.053 150.933 464.376 142.091C461.293 131.893 450.339 93.184 450.339 68.0427C450.339 34.8693 491.843 34.7093 491.843 68.0427C491.832 93.3333 480.291 133.045 477.635 142.091Z" fill="#560BAD"/>
</g>
<rect x="353" y="10" width="236" height="236" rx="90" stroke="white" stroke-width="20"/>
<defs>
<clipPath id="clip0_70_24">
<rect x="343" width="256" height="256" rx="100" fill="white"/>
</clipPath>
</defs>
</svg>
